<?xml version="1.0" standalone="no"?>
<!DOCTYPE svg PUBLIC "-//W3C//DTD SVG 1.1//EN" "http://www.w3.org/Graphics/SVG/1.1/DTD/svg11.dtd" >
<svg xmlns="http://www.w3.org/2000/svg">
<metadata>
Created by FontForge 20120731 at Wed Dec 30 16:03:57 2015
 By Ads
</metadata>
<defs>
<font id="iconfont" horiz-adv-x="1024" >
  <font-face 
    font-family="iconfont"
    font-weight="500"
    font-stretch="normal"
    units-per-em="1024"
    panose-1="2 0 6 3 0 0 0 0 0 0"
    ascent="896"
    descent="-128"
    x-height="792"
    bbox="34 -173 988.48 792"
    underline-thickness="50"
    underline-position="-100"
    unicode-range="U+0078-EA03"
  />
<missing-glyph horiz-adv-x="374" 
d="M34 0v682h272v-682h-272zM68 34h204v614h-204v-614z" />
    <glyph glyph-name=".notdef" horiz-adv-x="374" 
d="M34 0v682h272v-682h-272zM68 34h204v614h-204v-614z" />
    <glyph glyph-name=".null" horiz-adv-x="0" 
 />
    <glyph glyph-name="nonmarkingreturn" horiz-adv-x="341" 
 />
    <glyph glyph-name="x" unicode="x" horiz-adv-x="1001" 
d="M281 543q-27 -1 -53 -1h-83q-18 0 -36.5 -6t-32.5 -18.5t-23 -32t-9 -45.5v-76h912v41q0 16 -0.5 30t-0.5 18q0 13 -5 29t-17 29.5t-31.5 22.5t-49.5 9h-133v-97h-438v97zM955 310v-52q0 -23 0.5 -52t0.5 -58t-10.5 -47.5t-26 -30t-33 -16t-31.5 -4.5q-14 -1 -29.5 -0.5
t-29.5 0.5h-32l-45 128h-439l-44 -128h-29h-34q-20 0 -45 1q-25 0 -41 9.5t-25.5 23t-13.5 29.5t-4 30v167h911zM163 247q-12 0 -21 -8.5t-9 -21.5t9 -21.5t21 -8.5q13 0 22 8.5t9 21.5t-9 21.5t-22 8.5zM316 123q-8 -26 -14 -48q-5 -19 -10.5 -37t-7.5 -25t-3 -15t1 -14.5
t9.5 -10.5t21.5 -4h37h67h81h80h64h36q23 0 34 12t2 38q-5 13 -9.5 30.5t-9.5 34.5q-5 19 -11 39h-368zM336 498v228q0 11 2.5 23t10 21.5t20.5 15.5t34 6h188q31 0 51.5 -14.5t20.5 -52.5v-227h-327z" />
    <glyph glyph-name="uniE603" unicode="&#xe603;" 
d="M254 667q72 56 157.5 79.5t172.5 13.5t165 -53t134.5 -114.5t80 -157t13.5 -172.5t-53 -165t-114.5 -134.5t-157 -80t-172.5 -13t-165 53t-134.5 114t-80 157t-13.5 172.5t53 165t114 135zM385 512l-71 -25l-72 -25q-12 -4 -16 8v2l-5 50l-2 15q-56 -80 -67 -177
q-4 -31 -3 -62l7 10l28 42q7 10 17 3l2 -2l52 -55l52 -55q3 -4 3 -8l5 -76l4 -76q0 -5 -3 -8.5t-8 -4.5q-2 0 -4 1l-48 8l-28 5q1 -1 2 -2.5t2 -1.5q82 -105 212 -136l-17 24l-30 40q-7 9 2 17q2 0 3 1l70 30l70 30q4 2 8 0l73 -21l72 -22q12 -4 9 -15q-1 -2 -2 -3l-24 -43
l-15 -25q58 21 107 60q55 43 91 104l-12 -4l-47 -16q-12 -4 -16 7v3l-7 76l-7 76q0 4 2 8l43 62l43 63q7 10 17 3l2 -2l34 -37q-12 106 -78 192v-8l1 -50q0 -5 -3.5 -8.5t-8.5 -3.5h-3l-74 17l-74 16q-5 2 -7 5l-46 60l-47 60q-7 10 3 17l2 2l46 20l14 7q-30 8 -61 12
q-83 9 -162 -16h2l47 -16q12 -3 8 -15q-1 -1 -1 -3l-40 -64l-39 -65q-2 -4 -7 -5v0zM443 450q-9 0 -11 -9l-24 -85l-24 -85q-3 -8 5 -13l73 -49l73 -49q8 -5 15 0l69 55l70 55q7 5 4 14l-31 82l-31 83q-3 9 -12 8l-88 -3z" />
    <glyph glyph-name="uniE605" unicode="&#xe605;" 
d="M511.5 747q-90.5 0 -173 -35.5t-142 -95t-95 -142t-35.5 -173t35.5 -173t95 -142t142 -95t173 -35.5t173 35.5t142 95t94.5 142t35 173t-35 173t-94.5 142t-142 95t-173 35.5zM511.5 -99q-108.5 0 -201 54t-146 146t-53.5 200.5t53.5 201t146 146t201 53.5t200.5 -53.5
t146 -146t54 -201t-54 -200.5t-146 -146t-200.5 -54zM712 324h-364l133 141q6 7 6 16t-6.5 15.5t-15.5 6.5t-16 -6l-181 -196l178 -198q7 -6 16 -6t15.5 6.5t6.5 15.5t-6 16l-131 144h365q9 0 15.5 6.5t6.5 16t-6.5 16t-15.5 6.5z" />
    <glyph glyph-name="uniE608" unicode="&#xe608;" 
d="M775 -89h-549q-32 0 -50 16.5t-18 49.5v524q0 28 19 48t49 20h96v28q0 5 4 9t10 4h8q12 0 12 -13v-28h289v28q0 5 4.5 9t10.5 4h5q6 0 10 -4t4 -9v-28h82q32 0 57 -20.5t25 -47.5v-524q0 -28 -19 -47t-49 -19v0zM809 501q0 11 -11.5 22.5t-22.5 11.5h-96v-34q0 -6 -4 -10
t-10 -4h-3q-6 0 -11.5 4t-5.5 10v34h-289v-34q0 -14 -11 -14h-9q-6 0 -10 4t-4 10v34h-96q-11 0 -22.5 -11.5t-11.5 -22.5v-69h617v69v0zM809 398h-617v-405q1 -23 12.5 -35.5t28.5 -12.5h534q17 1 30 14t12 34v398v7zM481 71q-7 -7 -16 -7t-16 7l-91 101q-15 17 -3 31
q1 1 2.5 1.5t6.5 1.5t9 -2l92 -102l160 177q14 16 26 3q10 -11 -8 -31l-162 -180v0zM481 71z" />
    <glyph glyph-name="uniE60A" unicode="&#xe60a;" 
d="M98 76q7 -9 21 -17q11 -5 33 -14q19 -9 30 -13h1q2 -1 3 -1q51 -17 92 -21q91 -6 229 39q29 10 88 31q68 26 102 37l8 -63q1 -8 7.5 -14t15.5 -6l19 -1l67 -1h27h1q16 0 22 16l31 120q15 66 13 119.5t-13 89.5q-24 76 -20 222q0 10 -6 18t-16 11l-220 59q-13 4 -24 -4
t-13 -21q-6 -55 -21 -104l95 -59q9 -5 11.5 -15t-3.5 -19q-7 -12 -21 -13q-7 0 -13 4l-87 53q-14 -32 -32 -61l59 -51q8 -7 9 -17.5t-6 -18.5q-8 -8 -19 -8q-10 0 -17 6l-55 47q-21 -28 -47 -52l41 -48q7 -8 6 -18.5t-9 -17.5q-7 -6 -16 -6q-12 0 -20 9l-40 48
q-28 -22 -58 -40l23 -46q5 -10 2 -20t-13 -14q-5 -3 -11 -3q-16 0 -23 14l-23 45q-80 -37 -160 -46q-3 0 -6 -1q-35 -11 -45 -71q-4 -24 -4 -47q0 -9 5 -16v0zM935 -54h-80q-26 2 -35 39l-79 1q-9 -38 -35 -41l-189 -1q-28 3 -37 47q-38 -10 -71 -17q-10 -28 -32 -30
l-155 -1q-31 4 -54 15q-8 7 -9 15q-1 6 1 17l-27 12q-23 10 -34 14q-10 -15 -20 -24.5t-9.5 -22.5t11.5 -22q3 -2 9 -7q17 -14 28.5 -21.5t38.5 -18.5t60 -15h3q671 3 675 3q5 0 8 3q35 31 40 36q6 5 3.5 12t-11.5 7zM935 -54z" />
    <glyph glyph-name="uniE60C" unicode="&#xe60c;" 
d="M537 -53l22 37l-80 117l-100 69l92 55l141 -67l23 35l-162 124l-151 -63l9 16q17 34 22 46t14 35.5t10 27.5l96 59l37 139l-16 10l2 142h-8l-5 -140l-43 -106l-81 -41l-64 43q-8 6 -20 6q-15 1 -20 -4l-133 -108q-2 -2 -4 -6v-4q-1 -2 -1 -3q0 -2 3 -6l82 -110l2 -90
q0 -7 5 -13q7 -7 21 -18l2 -280l12 2v276q29 -15 58 -28q7 -4 20.5 -10t20.5 -8q38 -18 87 -37zM569 -153h321v884h-370l-8 -70l114 -68l-6 -233l74 -38l2 -80l-23 -13l-102 -153l27 -63l-76 -113zM435 606q-9 -2 -14 -1q-2 1 -7 3q-7 1 -13 6q-1 1 -3.5 4t-4.5 5
q-25 21 -56 18q-22 -2 -40 -16t-25 -36q-6 -18 -1 -42l164 57v2zM402 583l-127 -45q7 -21 16 -30q14 -15 34 -20t39 1q18 5 30.5 21t14.5 36q1 18 -7 37zM402 583z" />
    <glyph glyph-name="uniE60D" unicode="&#xe60d;" 
d="M913 485q-28 71 -82.5 125.5t-125.5 82.5q-68 28 -142 28t-143 -28q-70 -28 -125 -83q-81 -81 -103 -194q-1 -3 -2 -7v-2q0 -3 -1 -6v-3q-1 -3 -1 -6q0 -2 -1 -3v-5q0 -2 -1 -4v-1q-5 -50 3 -101q10 -58 36 -110l-134 -116l-1 -1q-15 -15 -12 -36q2 -18 15 -31l112 -113
q13 -13 31 -15q2 -1 5 -1q18 0 31 13l1 1l119 136q103 -52 217 -38h1q4 1 9 2h1q2 0 4 0.5t4 0.5h1q1 0 2 1q2 0 6 1h2q4 1 7 2v0q107 24 184 101q55 55 83 125q28 69 28 143t-28 142zM405 63l-4 2q-19 11 -34 -4l-6 -5l-2 -2l-120 -137l-100 101l137 118v1l5 4q17 15 5 35
q-36 62 -43 134l289 -287q-68 6 -127 40v0zM768 289q-33 0 -56.5 23.5t-23.5 57t23.5 57t57 23.5t57 -23.5t23.5 -57t-23.5 -57t-57.5 -23.5zM768 289z" />
    <glyph glyph-name="uniE611" unicode="&#xe611;" 
d="M457 336q50 -15 55 -17q72 -25 131 -33.5t132 -4.5q62 4 122 47q-10 10 -23 16l-263 145q-1 0 -2 1q39 44 110 44q45 0 73.5 -13t46.5 -45q2 -5 7 -11.5t20.5 -15t32.5 -1.5q18 7 24.5 18.5t3 22.5t-9.5 21.5t-12 16.5l-6 7q-24 37 -72 61.5t-108 24.5q-115 0 -187.5 -56
t-79.5 -144q-4 -19 -1 -38q2 -25 6 -46zM285 362q35 0 65 16q10 19 10 41q0 -17 7 -31q53 39 53 103q0 53 -39.5 91t-95 38t-95 -38t-39.5 -91.5t39.5 -91t94.5 -37.5zM399 281q-55 24 -111 32t-93 5t-72 -13t-45.5 -15t-16.5 -9v-75q56 32 120 36t126.5 -12.5t121 -38
t122.5 -41t111 -19.5q57 -1 109 6.5t85.5 18.5t59 22.5t36.5 19.5l11 8v75q-57 -45 -131 -63t-151.5 -10.5t-145.5 26t-136 47.5zM474 93q-190 82 -283 47q-17 -7 -17 -9v-75q44 22 93 22t96.5 -15t93.5 -33.5t101.5 -34t103.5 -15.5q61 0 117 10t82.5 18.5t26.5 9.5v75
q-90 -38 -204.5 -38.5t-209.5 38.5z" />
    <glyph glyph-name="uniE615" unicode="&#xe615;" 
d="M512.5 355q-47.5 0 -81.5 34t-34 82t34 82.5t81.5 34.5t81.5 -34.5t34 -82.5t-34 -82t-81.5 -34zM512.5 556q-34.5 0 -59 -25t-24.5 -60t24.5 -59.5t59 -24.5t59 24.5t24.5 59.5t-24.5 60t-59 25zM512 -53l-12 15q-13 15 -31.5 38.5t-62 86t-76.5 120.5t-59.5 129.5
t-26.5 125.5q0 116 78.5 198.5t190.5 82.5q110 0 189 -82.5t79 -198.5q1 -54 -26 -125.5t-60 -129.5t-76.5 -120t-62.5 -86t-32 -39zM513 711q-99 0 -168.5 -73t-69.5 -176q0 -55 28.5 -127.5t73.5 -143.5t75.5 -114.5t59.5 -79.5q29 36 60 79.5t76 114.5t73.5 143.5
t28.5 127.5q-1 103 -70.5 176t-166.5 73zM705 157v-31h63l64 -237h-634l63 237h48v31h-79l-79 -300h728l-79 300h-95z" />
    <glyph glyph-name="uniE616" unicode="&#xe616;" 
d="M518 403q49 -20 109 -40q2 82 -45 212q-19 54 -41.5 99t-36.5 63q-64 -1 -123 -19q84 -152 137 -315zM857 89q-50 0 -108 11q-82 15 -176 52q-108 41 -187 88q-1 1 -3 2q-51 -54 -95 -108q57 -56 143 -103q181 -100 372 -79h3q11 11 22 21q52 53 85 119q-26 -3 -56 -3z
M637 311q-73 23 -133 48q-42 -37 -88 -83q82 -46 174 -82q204 -79 333 -53q5 1 10 0q17 47 23 97q-146 18 -319 73zM838 304q63 -13 121 -20v6q0 91 -35 174q-34 80 -96 142q-26 25 -54 46q67 -137 64 -348zM358 282q59 62 115 111q-18 54 -41 110q-58 -25 -116 -72
q-143 -116 -219 -313q1 -2 1 -3q22 -50 54 -93q78 127 206 260zM582 -78q-90 22 -175 69q-86 48 -147 106q-44 -58 -77 -112q6 -7 11 -12q62 -62 143 -96q83 -35 174 -35t174 35q27 11 52 26q-79 0 -155 19zM626 590q53 -149 46 -242q62 -19 120 -33q1 173 -49 293
q-25 60 -49 84q-4 4 -6 9l-1 1h-2q-60 26 -125 33q34 -59 66 -145zM164 337q56 75 125 131q63 51 125 78q-38 86 -77 156q-81 -34 -143 -96t-96 -142q-35 -83 -35 -174q0 -54 13 -105q37 83 88 152z" />
    <glyph glyph-name="uniE622" unicode="&#xe622;" 
d="M477 508q-44 13 -75 -2.5t-41 -50.5q-6 -20 -0.5 -40t25.5 -37q-30 -3 -48.5 -20.5t-25.5 -42.5q-14 -46 12 -81q22 -31 64 -43q45 -13 80 5.5t48 61.5q7 26 -0.5 50t-30.5 42q23 3 39 16.5t23 34.5q10 35 -8 64.5t-62 42.5zM458 278q-7 -25 -23 -34.5t-34 -4.5
q-19 5 -27.5 22.5t-1.5 42.5q5 17 20 29t37 6q18 -6 26.5 -22.5t2.5 -38.5zM490 413q-5 -17 -18 -24.5t-30 -2.5t-24 18t-2 31q5 16 18 23.5t30 2.5t24 -18t2 -30zM925 476q-34 80 -96 142t-143 96q-83 35 -174 35t-174 -35q-81 -34 -143 -96t-96 -142q-35 -83 -35 -174
t35 -175q34 -80 96 -142t143 -96q83 -35 174 -35t174 35q81 34 143 96t96 142q35 84 35 175t-35 174zM507 697q36 6 72 -7q9 -3 13 -11.5t1 -17.5q-5 -15 -21 -15q-4 0 -8 2q-26 9 -50 5q-9 -2 -16.5 3.5t-9 15t4 17t14.5 8.5zM454 72q-108 0 -184.5 76.5t-76.5 184.5
t76.5 184.5t184.5 76.5t184.5 -76.5t76.5 -184.5t-76.5 -184.5t-184.5 -76.5zM886 327h-4q-8 0 -14 5t-8 14q-22 129 -121 213q-50 43 -96 60q-9 3 -13 11.5t-0.5 17.5t11.5 13t17 0q52 -18 109 -66q49 -42 82 -95q42 -67 56 -147q1 -9 -4.5 -16.5t-14.5 -9.5z" />
    <glyph glyph-name="uniE62E" unicode="&#xe62e;" 
d="M77 611q8 -64 72 -87q18 -6 40 -8l3 -3l257 -257l-57 -58l-89 30l-49 -49l89 -29l-19 -19l-88 29l-49 -48l89 -30l-40 -40l44 -43l40 40l29 -88l49 48l-30 88l19 19l29 -88l49 49l-30 88l58 57l233 -233q1 -23 8 -43q22 -64 87 -72q62 -7 101 51q18 26 24 54q1 1 1 3v7
q0 5 -1.5 9t-6.5 9t-13 8q-13 5 -22.5 -1t-13 -12.5t-3.5 -7.5q-5 -19 -17 -36q-17 -26 -42 -23q-26 3 -36 31q-8 24 -5 56q1 4 2 15q21 172 -5 242q-21 58 -96 139l83 83l49 -56q6 -7 12 -6t8 10l49 193q2 9 -2.5 14t-13.5 2l-193 -48q-9 -2 -10.5 -8t5.5 -12l53 -46
l-83 -83q-93 96 -163 122q-46 17 -131 15q-44 -1 -111 -9q-11 -2 -15 -2q-32 -3 -56 5q-28 10 -31 37q-2 24 24 41q17 12 35 17q1 0 3 0.5t7 3.5t7.5 7t5.5 10.5t0 14.5q-3 12 -12.5 18t-16.5 6l-8 -1q-28 -6 -54 -23q-59 -39 -52 -102zM727 248q20 -56 1 -213l-206 206
l123 123q65 -70 82 -116zM461 515q57 -21 141 -107l-124 -124l-233 233q1 1 2 1q158 18 214 -3z" />
    <glyph glyph-name="uniE631" unicode="&#xe631;" 
d="M272 -101l-102 74q-9 7 -20.5 3t-14.5 -16l-22 -106q-3 -13 6 -21q7 -6 16 -6h5l124 32q14 4 17 18t-9 22zM893 -40q-3 12 -14.5 16t-20.5 -3l-102 -74q-12 -8 -9 -22t17 -18l124 -32h5q9 0 16 6q9 8 6 21zM868 444q21 -61 21 -126q0 -102 -50 -188.5t-136.5 -136.5
t-188.5 -50t-188.5 50t-137 136.5t-50.5 188.5t50.5 188.5t137 137t188.5 50.5q95 0 178 -45l53 45q-29 18 -59 31q-82 34 -172 34t-172 -34q-79 -34 -140 -95t-95 -140q-34 -82 -34 -171.5t34 -171.5q34 -80 95 -141t140 -94q82 -35 172 -35t172 35q79 33 140 94t94 141
q35 82 35 171t-34 170zM514 593q-114 0 -194.5 -80.5t-80.5 -194t80.5 -194t194.5 -80.5t194 80.5t80 193.5q0 34 -8 66v0q-6 0 -11 1l-44 6l-12 -10q10 -30 10 -63q0 -86 -61.5 -147.5t-148 -61.5t-147.5 61.5t-61 148t61 147.5t148 61q48 0 90 -20l14 11v44q0 5 1 10
q-50 21 -105 21zM987.5 634q-3.5 11 -14.5 13l-65 10v66q1 12 -10 17t-20 -3l-199 -169q-7 -5 -7 -14l-1 -60l-115 -98q-20 10 -42 10q-37 0 -62.5 -25.5t-25.5 -62t25.5 -62.5t62 -26t62.5 26t26 62q0 20 -8 37l113 96l60 -9q9 -1 15 4l200 169q9 8 5.5 19z" />
    <glyph glyph-name="uniE63B" unicode="&#xe63b;" 
d="M812 378h-130q-34 -65 -50 -126q46 -72 46 -157q0 -83 -44 -154q25 -78 46 -94h132q3 4 9 11t20.5 32.5t25 54t17.5 75.5t3.5 97.5t-22 119.5t-53.5 141zM386.5 343q-102.5 0 -175.5 -72.5t-73 -175.5t73 -175.5t175.5 -72.5t175 72.5t72.5 175.5t-72.5 175.5t-175 72.5z
M278.5 158.5q-10.5 -7.5 -23.5 -5.5t-20 12.5t-5 23.5t12.5 20t23 5t20 -12.5t5.5 -23t-12.5 -20zM344.5 279.5q10.5 7.5 23 5t19.5 -13t5 -23t-12.5 -20t-23 -5t-20 13t-5 23t13 20zM385.5 114q-10.5 -7 -23 -5t-20 12.5t-5 23t13 20t23 5t20 -13t5 -23t-13 -19.5zM662 655
v-1q0 -1 1 -3l22 -88h127l23 92v7q0 35 -25.5 60.5t-61 25.5t-61 -25.5t-25.5 -60.5v-7zM797 416l6 105h-113l7 -105h100z" />
    <glyph glyph-name="uniE643" unicode="&#xe643;" 
d="M952 -140q-6 -6 -14 -6t-14 6l-173 174q14 13 27 27l174 -173q6 -6 6 -14t-6 -14zM459.5 -41q-106.5 0 -197.5 53t-143.5 143.5t-52.5 197t52.5 197.5t143.5 143.5t197.5 52.5t197 -52.5t143.5 -143.5t53 -197.5t-53 -197t-143.5 -143.5t-197 -53zM459 706
q-96 0 -177.5 -47t-129 -128.5t-47.5 -177.5t47.5 -178t129 -129t177.5 -47t178 47t129 129t47 178t-47 177.5t-129 128.5t-178 47z" />
    <glyph glyph-name="uniE657" unicode="&#xe657;" 
d="M581 265q24 28 42.5 78.5t17.5 105.5q0 38 -22.5 64.5t-48.5 36.5t-49 9q-15 0 -29 -2.5t-31.5 -10.5t-30.5 -20t-22.5 -34t-9.5 -51q-1 -35 2 -64t9.5 -49.5t11 -31.5t13.5 -24l8 -14q7 -18 5.5 -28.5t-11.5 -28.5q-6 -10 -45.5 -34t-76.5 -43l-37 -19v-60h466v62
q-133 75 -153 92q-13 12 -15 34.5t6 31.5zM727 61h-432l1 32q148 81 159 100q22 39 4 72q-1 1 -6.5 10.5t-9.5 16.5t-9.5 22t-9 30.5t-6 39.5t-2.5 50q1 32 11.5 55t27.5 33.5t32.5 15t32.5 4.5q15 1 31.5 -4t33 -16t27.5 -33t11 -50q0 -34 -9.5 -66.5t-19 -50.5t-26.5 -46
q-14 -22 -10.5 -47.5t17.5 -38.5q18 -16 152 -94v-35zM510 748q-91 0 -173.5 -35t-142 -95t-95 -142.5t-35.5 -173.5t35.5 -173.5t95 -142t142 -95t173.5 -35.5t173.5 35.5t142.5 95t95 142t35 173.5t-35 173.5t-95 142.5t-142.5 95t-173.5 35zM510 -124q-116 0 -214 57
t-155 155t-57 214t57 214t155 155t214 57t214 -57t155 -155t57 -214t-57 -214t-155 -155t-214 -57zM510 -124z" />
    <glyph glyph-name="uniE65C" unicode="&#xe65c;" 
d="M704 507v20h-79v-19v-34l-120 124l-286 -295l14 -17l47 48v-293h445v298l51 -53l14 17l-86 89v115zM645 507h39v-94l-39 40v54zM594 62h-151v218h151v-218zM704 62h-90v239h-191v-239h-123v293l205 210l199 -205v-298zM510 747q-91 0 -173.5 -35t-142.5 -95t-95 -142.5
t-35 -173.5t35 -173.5t95 -142t142.5 -95t173.5 -35.5t173.5 35.5t142 95t95 142t35.5 173.5t-35.5 173.5t-95 142.5t-142 95t-173.5 35zM510 -125q-116 0 -214 57t-155 155t-57 214t57 214t155 155t214 57t214 -57t155 -155t57 -214t-57 -214t-155 -155t-214 -57zM510 -125
z" />
    <glyph glyph-name="uniE665" unicode="&#xe665;" 
d="M513 -150q-91 0 -174 36t-143 96t-95.5 142.5t-35.5 173.5t35.5 174t95.5 143t143 95.5t174 35.5t174 -35.5t143 -95.5t95.5 -143t35.5 -174t-35.5 -173.5t-95.5 -142.5t-143 -96t-174 -36zM513 729q-117 0 -216.5 -57.5t-157 -157t-57.5 -216t57.5 -216t157 -157
t216.5 -57.5t216 57.5t156.5 157t57.5 216t-57.5 216t-156.5 157t-216 57.5zM788 328h-551v95h551v-95zM254 345h517v61h-517v-61zM745 61h-465v284h465v-284zM297 78h431v250h-431v-250zM504 414h17v-344h-17v344zM513 406q-32 0 -61 10q-60 22 -60 76q0 20 13.5 32
t36.5 12q30 0 54.5 -18t24.5 -43v-69h-8zM442 518q-33 0 -33 -26q0 -20 11 -34.5t28 -21t30 -9.5t26 -4v52q0 17 -20 30t-42 13zM513 406h-9v69q0 25 25 43t55 18q23 0 36 -12t13 -32q0 -54 -60 -76q-29 -10 -60 -10zM584 518q-23 0 -43 -13t-20 -30v-52q26 2 47 9
q48 18 48 60q0 26 -32 26z" />
    <glyph glyph-name="uniE670" unicode="&#xe670;" 
d="M161.5 398q40.5 0 69.5 -28.5t29 -69.5t-29 -69.5t-69.5 -28.5t-69 28.5t-28.5 69.5t28.5 69.5t69 28.5zM512 398q41 0 69.5 -28.5t28.5 -69.5t-28.5 -69.5t-69.5 -28.5t-69.5 28.5t-28.5 69.5t28.5 69.5t69.5 28.5zM862.5 398q40.5 0 69 -28.5t28.5 -69.5t-28.5 -69.5
t-69 -28.5t-69.5 28.5t-29 69.5t29 69.5t69.5 28.5z" />
    <glyph glyph-name="uniE67D" unicode="&#xe67d;" 
d="M512 729q87 0 167 -34q77 -32 136.5 -91.5t91.5 -136.5q34 -80 34 -167t-34 -167q-32 -77 -91.5 -136.5t-136.5 -91.5q-80 -34 -167 -34t-167 34q-77 32 -136.5 91.5t-91.5 136.5q-34 80 -34 167t34 167q32 77 91.5 136.5t136.5 91.5q80 34 167 34zM512 750
q-91 0 -174.5 -36t-143.5 -96t-96 -143.5t-36 -174.5t36 -174.5t96 -143.5t143.5 -96t174.5 -36t174.5 36t143.5 96t96 143.5t36 174.5t-36 174.5t-96 143.5t-143.5 96t-174.5 36zM684 99h-375v375h273l22 27h-295q-15 0 -21.5 -6t-6.5 -21v-375q0 -15 6.5 -21.5t21.5 -6.5
h375q15 0 21 6.5t6 21.5v245l-27 -32v-213zM736 524q-6 5 -14 5q-13 0 -21 -12l-195 -281l-84 95q-13 13 -26 -2q-6 -8 -2.5 -17.5t12.5 -17.5l82 -95l1 -1l1 -1l2 -3q1 0 1 -0.5t0.5 -1t1.5 -0.5q1 -1 5 -3h1q4 -1 8 -1q11 0 18 8q1 0 1.5 1.5t1.5 1.5l204 299q6 8 7.5 11
t0.5 7.5t-6 7.5z" />
    <glyph glyph-name="uniE68C" unicode="&#xe68c;" 
d="M454 704l-62 31l56 -409l24 31l31 -31v415zM578 704l-68 37l6 -409l37 37l25 -49l56 408zM652 308l124 396l-68 -31l-68 55l-44 -402l38 25zM788 704l-117 -396q12 7 24 17l-12 -41v5l-21 4l3 8h-13l-2 -6h-4h-53l3 31l-18 -6l-3 -25h-59v31h-13v-31h-53l-2 25h-19l3 -25
h-48l-9 30l17 38l37 -37l-43 409l-62 -62l-81 31l118 -377h-5l11 -34l-28 -9l-15 42l-4 4q11 -10 22 -16q1 0 -25 97.5t-53 194.5l-27 98l-56 -81q-3 -19 0 -49q16 -69 50.5 -130.5t74.5 -100.5l73 -227l-12 -50h285q-4 49 -6 50l67 224q78 72 131 240v43zM434 277l9 -68
h-33l-20 68h44zM343 271l29 5l22 -67h-2l-23 -10zM398 116l-24 68l18 6l8 1l24 -74h13l-22 76l29 3l10 -80h-56zM503 116h-37l-7 79l44 -4v-75zM503 209h-45l-6 68h51v-68zM591 277h54l-22 -74l-41 4zM559 116h-43v74h50zM516 209v68h58l-6 -68h-52zM572 116l8 73l37 -4
l-21 -69h-24zM634 116h-23l19 68h22l4 7zM657 196l-22 5l22 76h24zM367 35v-43q5 -50 42.5 -89.5t69.5 -40.5q55 -7 68 0q47 3 81.5 50.5t29.5 122.5h-291z" />
    <glyph glyph-name="uniE9C7" unicode="&#xe9c7;" 
d="M319 467h7q4 12 8 23q38 111 107 196q29 35 61 64q-88 -2 -166.5 -36t-139.5 -93q53 -67 61 -156q31 2 62 2zM170 593q-57 -66 -84 -149q65 13 133 19q-7 73 -49 130zM495 237q-45 80 -32 159q2 12 6 24q-57 7 -114 8q-22 -86 -22 -177q0 -113 33 -215.5t93 -181.5
q26 -3 53 -3q91 0 172.5 34t143.5 96q-116 48 -202 113q-89 67 -131 143zM220 425q-75 -6 -146 -22q-12 -50 -12 -103q0 -48 10 -94q63 23 104 83t44 136zM833 615q-56 -9 -105 -25q-152 -49 -205 -140q67 -12 130 -31q155 -45 274 -129q17 -11 33 -24q1 17 1 34
q0 91 -33.5 172t-94.5 143zM483 456q22 43 63 79q65 57 171 91q38 12 81 21q-104 87 -239 101q-135 -101 -193 -282q59 -2 117 -10zM295 251q0 91 21 178q-29 0 -58 -2q-4 -109 -73 -188q-44 -49 -104 -70q35 -114 122 -196t203 -110q-44 68 -72 149q-39 114 -39 239z
M500 389q-11 -65 27.5 -133.5t120.5 -131.5q88 -66 207 -113q79 92 100 211q-179 149 -449 192q-4 -12 -6 -25z" />
    <glyph glyph-name="uniEA03" unicode="&#xea03;" 
d="M665 300.5q0 95.5 41.5 179t112.5 141.5q-61 59 -141 92t-168 33t-167 -32.5t-140 -90.5q73 -58 114.5 -142t41.5 -180.5t-41.5 -181t-114.5 -141.5q61 -58 140 -90.5t167 -32.5t168 33t141 92q-71 58 -112.5 141.5t-41.5 179zM319 300q0 88 -37.5 165t-103.5 130
q-113 -126 -113 -294.5t113 -295.5q66 53 103.5 130t37.5 165zM847 593q-65 -53 -102 -129.5t-37 -163.5t37 -163t102 -129q110 126 110 292.5t-110 292.5z" />
  </font>
</defs>
</svg>
